<svg xmlns="http://www.w3.org/2000/svg" viewBox="0 0 64 64" fill="none">
  <path d="M20 32c-4-2-8-6-8-12 0-6 4-10 8-8 2 1 4 3 4 6" stroke="#8B5A2B" stroke-width="3" stroke-linecap="round"/>
  <path d="M44 32c4-2 8-6 8-12 0-6-4-10-8-8-2 1-4 3-4 6" stroke="#8B5A2B" stroke-width="3" stroke-linecap="round"/>
  <path d="M32 20c0-4 2-8 6-8s6 4 6 8" stroke="#8B5A2B" stroke-width="3" stroke-linecap="round"/>
  <circle cx="32" cy="32" r="8" fill="#FFD700"/>
  <path d="M28 28l8 8M36 28l-8 8" stroke="#8B5A2B" stroke-width="2"/>
</svg>
